<?xml version="1.0" encoding="UTF-8" standalone="no"?>
<svg
   xmlns:dc="http://purl.org/dc/elements/1.1/"
   xmlns:cc="http://creativecommons.org/ns#"
   xmlns:rdf="http://www.w3.org/1999/02/22-rdf-syntax-ns#"
   xmlns:svg="http://www.w3.org/2000/svg"
   xmlns="http://www.w3.org/2000/svg"
   xmlns:sodipodi="http://sodipodi.sourceforge.net/DTD/sodipodi-0.dtd"
   xmlns:inkscape="http://www.inkscape.org/namespaces/inkscape"
   version="1.1"
   id="Layer_1"
   x="0px"
   y="0px"
   width="34.228001"
   height="18"
   viewBox="0 0 34.228004 18"
   enable-background="new 0 0 197.228 18"
   xml:space="preserve"
   inkscape:version="0.91 r13725"
   sodipodi:docname="comsol_logo.svg"><metadata
     id="metadata3491"><rdf:RDF><cc:Work
         rdf:about=""><dc:format>image/svg+xml</dc:format><dc:type
           rdf:resource="http://purl.org/dc/dcmitype/StillImage" /><dc:title></dc:title></cc:Work></rdf:RDF></metadata><defs
     id="defs3489" /><sodipodi:namedview
     pagecolor="#ffffff"
     bordercolor="#666666"
     borderopacity="1"
     objecttolerance="10"
     gridtolerance="10"
     guidetolerance="10"
     inkscape:pageopacity="0"
     inkscape:pageshadow="2"
     inkscape:window-width="3001"
     inkscape:window-height="1639"
     id="namedview3487"
     showgrid="false"
     inkscape:snap-global="true"
     inkscape:zoom="12.939339"
     inkscape:cx="98.403459"
     inkscape:cy="-3.563204"
     inkscape:window-x="0"
     inkscape:window-y="33"
     inkscape:window-maximized="0"
     inkscape:current-layer="Layer_1" /><linearGradient
     id="SVGID_1_"
     gradientUnits="userSpaceOnUse"
     x1="0"
     y1="9"
     x2="197.2"
     y2="9"><stop
       offset="0"
       style="stop-color:#368BCA"
       id="stop3481" /><stop
       offset="1"
       style="stop-color:#005595"
       id="stop3483" /></linearGradient><g
     id="g3545"
     style="fill:#3388c7;fill-opacity:1"><path
       id="path3523"
       d="m 33.19,2.621 c 0,-1.444 -1.171,-2.616 -2.616,-2.616 l -10.14,0 c -1.445,0 -2.616,1.171 -2.616,2.616 l 0,12.756 c 0,1.4 1.2,2.6 2.6,2.614 l 10.14,0 c 1.445,0 2.616,-1.171 2.616,-2.614 l 0,-12.756 z"
       style="fill:#3388c7;fill-opacity:1"
       inkscape:connector-curvature="0" /><path
       id="path3485"
       d="m 12.756,0.005 -10.14,0 C 1.171,0 0,1.2 0,2.621 l 0,0.003 c 0,0 0,0 0,0.008 0,0.6 0.2,1.2 0.6,1.633 l 0.011,0 10.127,12.746 0.025,0.011 c 0.482,0.6 1.2,0.9 2,0.938 0.002,0 0,0 0,0 l 0.002,0 c 1.443,0 2.615,-1.171 2.615,-2.614 l 0,-12.725 C 15.371,1.2 14.2,0 12.8,0.005 Z"
       style="fill:#3388c7;fill-opacity:1"
       inkscape:connector-curvature="0" /></g></svg>